/* XPM */
static const char *Lock64[] = {
/* columns rows colors chars-per-pixel */
"64 64 227 2 ",
"   c #000000",
".  c #080605",
"X  c #0C0A01",
"o  c #060708",
"O  c #0A0B0D",
"+  c #120D04",
"@  c #130D08",
"#  c #141004",
"$  c #1E1606",
"%  c #1C1900",
"&  c #14140C",
"*  c #18110A",
"=  c #0E0F11",
"-  c #0F1012",
";  c #111214",
":  c #161618",
">  c #1A1A1D",
",  c #201806",
"<  c #2B2005",
"1  c #2C200C",
"2  c #3F2B00",
"3  c #37280A",
"4  c #3E3500",
"5  c #1C1D20",
"6  c #222326",
"7  c #232528",
"8  c #2B2D32",
"9  c #303135",
"0  c #333837",
"q  c #32343A",
"w  c #343939",
"e  c #402D00",
"r  c #403200",
"t  c #513A09",
"y  c #7B591B",
"u  c #323842",
"i  c #393B41",
"p  c #393E48",
"a  c #3D434C",
"s  c #424750",
"d  c #454A52",
"f  c #4A4C54",
"g  c #495154",
"h  c #4F545D",
"j  c #53555C",
"k  c #58595F",
"l  c #4C5563",
"z  c #4F5865",
"x  c #595E68",
"c  c #566065",
"v  c #57606C",
"b  c #5C646D",
"n  c #5D686D",
"m  c #5F6774",
"M  c #646974",
"N  c #6A6D75",
"B  c #646D7A",
"V  c #647074",
"C  c #6B727D",
"Z  c #71747E",
"A  c #8E6A04",
"S  c #967002",
"D  c #8F6915",
"F  c #B7740F",
"G  c #BF7A08",
"H  c #AA6F10",
"J  c #AC7111",
"K  c #A5791E",
"L  c #B97710",
"P  c #BC7C12",
"I  c #C07B08",
"U  c #9F8800",
"Y  c #A18D00",
"T  c #BC8C0C",
"R  c #B79E00",
"E  c #BD9800",
"W  c #BF8113",
"Q  c #B9A300",
"!  c #BDAA03",
"~  c #D68203",
"^  c #D98503",
"/  c #DC8B00",
"(  c #DE8E08",
")  c #C39400",
"_  c #C09F00",
"`  c #DC9300",
"'  c #DC9B00",
"]  c #D59F08",
"[  c #C18414",
"{  c #CC9811",
"}  c #E08B02",
"|  c #E59201",
" . c #E99600",
".. c #EB9C00",
"X. c #E29409",
"o. c #E69C0B",
"O. c #E89F0C",
"+. c #CFAB00",
"@. c #DCA300",
"#. c #DDA900",
"$. c #C1B300",
"%. c #C8BC0D",
"&. c #D8A51B",
"*. c #DFAE1D",
"=. c #C9BA13",
"-. c #EDA200",
";. c #ECAB00",
":. c #E9A10C",
">. c #F2A700",
",. c #F4AD03",
"<. c #ECB300",
"1. c #EEBC00",
"2. c #F5B303",
"3. c #F9B501",
"4. c #F4B907",
"5. c #FEBD00",
"6. c #F5BC0A",
"7. c #F9BE08",
"8. c #E4AE13",
"9. c #ECBC18",
"0. c #CFC417",
"q. c #CEC118",
"w. c #D0C519",
"e. c #D6CC1E",
"r. c #EEC100",
"t. c #EECB00",
"y. c #F2C700",
"u. c #FFC303",
"i. c #F2C900",
"p. c #FFCA07",
"a. c #F3C40C",
"s. c #FBC409",
"d. c #FECB0B",
"f. c #F6D200",
"g. c #FBD400",
"h. c #FADB01",
"j. c #F7C111",
"k. c #F9C611",
"l. c #FCCD12",
"z. c #F9CC1B",
"x. c #FFD213",
"c. c #F7D618",
"v. c #FED619",
"b. c #FEE502",
"n. c #FFEC00",
"m. c #DACD23",
"M. c #DED226",
"N. c #E2D62A",
"B. c #FBD422",
"V. c #FEDD23",
"C. c #FAD72D",
"Z. c #FCDD2F",
"A. c #FADC37",
"S. c #FBDF3A",
"D. c #FEE32F",
"F. c #FCE436",
"G. c #FDE539",
"H. c #FFEB39",
"J. c #FDE746",
"K. c #FFED46",
"L. c #677382",
"P. c #6C7886",
"I. c #767780",
"U. c #757A85",
"Y. c #7B7D85",
"T. c #7A7E88",
"R. c #73808E",
"E. c #7E858B",
"W. c #778390",
"Q. c #798390",
"!. c #7C8995",
"~. c #81858F",
"^. c #838791",
"/. c #858994",
"(. c #8B8E97",
"). c #858F9B",
"_. c #8D9697",
"`. c #86919D",
"'. c #8D929D",
"]. c #92949C",
"[. c #98999F",
"{. c #8C96A1",
"}. c #9196A1",
"|. c #939BA6",
" X c #959EA9",
".X c #989EA9",
"XX c #9EA6A6",
"oX c #97A0AB",
"OX c #9CA2AC",
"+X c #9CA6B0",
"@X c #A1A5AE",
"#X c #A4ADAC",
"$X c #A0A6B1",
"%X c #A3ABB5",
"&X c #A9ACB4",
"*X c #A5AFB8",
"=X c #AAAFB8",
"-X c #A6B0B9",
";X c #ADB3BC",
":X c #B1B2B7",
">X c #B1B4BB",
",X c #B5BBC3",
"<X c #B8BDC5",
"1X c #BBC2C4",
"2X c #B7C0C8",
"3X c #BCC3CB",
"4X c #C0C1C7",
"5X c #C2C7CD",
"6X c #C1C8CF",
"7X c #C5CBD1",
"8X c #CACFD4",
"9X c #CCD1D6",
"0X c #CDD3D8",
"qX c #D1D6DB",
"wX c #D5D9DE",
"eX c #D6DBE0",
"rX c #DADEE2",
"tX c #DEE1E5",
"yX c #E1E4E7",
"uX c #E3E6E9",
"iX c #E6E8EB",
"pX c #EBEDEF",
"aX c #ECEEF0",
"sX c #F4F5F6",
"dX c #F6F7F8",
"fX c #FAFAFB",
"gX c None",
/* pixels */
"gXgXgXgXgXgXgXgXgXgXgXgXgXgXgXgXgXgXgXgXgXgXgXgXgXgX                        gXgXgXgXgXgXgXgXgXgXgXgXgXgXgXgXgXgXgXgXgXgXgXgXgXgX",
"gXgXgXgXgXgXgXgXgXgXgXgXgXgXgXgXgXgXgXgXgXgXgX        o O : : : : : : O o         gXgXgXgXgXgXgXgXgXgXgXgXgXgXgXgXgXgXgXgXgXgXgX",
"gXgXgXgXgXgXgXgXgXgXgXgXgXgXgXgXgXgXgXgXgX      = 9 k Y.[.&X:X:X:X:X&X[.Y.k 9 =       gXgXgXgXgXgXgXgXgXgXgXgXgXgXgXgXgXgXgXgXgX",
"gXgXgXgXgXgXgXgXgXgXgXgXgXgXgXgXgXgXgX      > j ].4XrXaXsXfXfXfXfXfXfXsXaXtX<X].j > .     gXgXgXgXgXgXgXgXgXgXgXgXgXgXgXgXgXgXgX",
"gXgXgXgXgXgXgXgXgXgXgXgXgXgXgXgXgXgX    - f ].5XtXpXsXsXsXsXsXsXfXsXsXsXsXsXpXtX5X].f -     gXgXgXgXgXgXgXgXgXgXgXgXgXgXgXgXgXgX",
"gXgXgXgXgXgXgXgXgXgXgXgXgXgXgXgXgX    6 I.:X9XtXiXpXaXaXaXaXpXpXaXaXaXaXaXaXpXiXtX9X:XI.6     gXgXgXgXgXgXgXgXgXgXgXgXgXgXgXgXgX",
"gXgXgXgXgXgXgXgXgXgXgXgXgXgXgXgX    9 (.<X9XeXyXiXiXyXtXrXrXrXeXwXeXrXtXyXyXiXyXyXeX9X<X(.9     gXgXgXgXgXgXgXgXgXgXgXgXgXgXgXgX",
"gXgXgXgXgXgXgXgXgXgXgXgXgXgXgX    9 ].<X9XrXyXyXrXqX8X5X4X>X>X>X>X>X>X4X5X9XwXrXyXtXrX9X<X'.9     gXgXgXgXgXgXgXgXgXgXgXgXgXgXgX",
"gXgXgXgXgXgXgXgXgXgXgXgXgXgX    7 /.,X8XeXrXeX0X7X,X@X^.N j f f f f j N /.@X<X7X0XrXrXeX8X,X/.7     gXgXgXgXgXgXgXgXgXgXgXgXgXgX",
"gXgXgXgXgXgXgXgXgXgXgXgXgXgX  - C ;X7XqXeXqX7X,X.XN q -                 ; q N @X<X7XqXeXqX7X;XZ -   gXgXgXgXgXgXgXgXgXgXgXgXgXgX",
"gXgXgXgXgXgXgXgXgXgXgXgXgX    f +X3X0XqX0X5X=X~.i O                         o i ^.>X5X0XqX9X3X+Xf     gXgXgXgXgXgXgXgXgXgXgXgXgX",
"gXgXgXgXgXgXgXgXgXgXgXgXgX  5 ^.;X7X0X8X5X&XY.7       gXgXgXgXgXgXgXgXgXgX      7 T.=X5X9X9X7X;X^.5   gXgXgXgXgXgXgXgXgXgXgXgXgX",
"gXgXgXgXgXgXgXgXgXgXgXgX    g OX<X7X8X3X=X~.7     gXgXgXgXgXgXgXgXgXgXgXgXgXgX    7 ^.;X5X8X8X<X@Xg     gXgXgXgXgXgXgXgXgXgXgXgX",
"gXgXgXgXgXgXgXgXgXgXgXgX  ; U.=X3X7X6X,X}.i     gXgXgXgXgXgXgXgXgXgXgXgXgXgXgXgX    i }.,X6X7X3X=XU.;   gXgXgXgXgXgXgXgXgXgXgXgX",
"gXgXgXgXgXgXgXgXgXgXgXgX  8 (.;X6X7X<X$XM o   gXgXgXgXgXgXgXgXgXgXgXgXgXgXgXgXgXgX  o M +X<X3X3X;X'.8   gXgXgXgXgXgXgXgXgXgXgXgX",
"gXgXgXgXgXgXgXgXgXgXgX    d |.;X3X3X;X'.q     gXgXgXgXgXgXgXgXgXgXgXgXgXgXgXgXgXgX    q '.;X3X3X,X.Xd     gXgXgXgXgXgXgXgXgXgXgX",
"gXgXgXgXgXgXgXgXgXgXgX  o x  X;X3X3X*XU.;   gXgXgXgXgXgXgXgXgXgXgXgXgXgXgXgXgXgXgXgX  : R.+X,X2X<X+Xx o   gXgXgXgXgXgXgXgXgXgXgX",
"gXgXgXgXgXgXgXgXgXgXgX  O M oX;X3X3X+Xb o   gXgXgXgXgXgXgXgXgXgXgXgXgXgXgXgXgXgXgXgX  o b +X;X2X3X$XM o   gXgXgXgXgXgXgXgXgXgXgX",
"gXgXgXgXgXgXgXgXgXgXgX  O C oX;X3X2XOXh     gXgXgXgXgXgXgXgXgXgXgXgXgXgXgXgXgXgXgXgX    l |.-X2X3X&XC =   gXgXgXgXgXgXgXgXgXgXgX",
"gXgXgXgXgXgXgXgXgXgXgX  - L.oX-X3X3XoXg     gXgXgXgXgXgXgXgXgXgXgXgXgXgXgXgXgXgXgXgX    g {.+X,X6X;XL.=   gXgXgXgXgXgXgXgXgXgXgX",
"gXgXgXgXgXgXgXgXgXgXgX  = C |.%X3X6X.Xd     gXgXgXgXgXgXgXgXgXgXgXgXgXgXgXgXgXgXgXgX    g `.+X,X7X;XC -   gXgXgXgXgXgXgXgXgXgXgX",
"gXgXgXgXgXgXgXgXgXgXgX  = B {.+X3X7X Xs     gXgXgXgXgXgXgXgXgXgXgXgXgXgXgXgXgXgXgXgX    d !. X,X7X,XB -   gXgXgXgXgXgXgXgXgXgXgX",
"gXgXgXgXgXgXgXgXgXgXgX  = m ).|.3X8X Xa     gXgXgXgXgXgXgXgXgXgXgXgXgXgXgXgXgXgXgXgX    a R.{.;X9X;XB -   gXgXgXgXgXgXgXgXgXgXgX",
"gXgXgXgXgXgXgXgXgXgXgX  O v W.`.<X8X{.a     gXgXgXgXgXgXgXgXgXgXgXgXgXgXgXgXgXgXgXgX    a P.!.*X9X;Xv O   gXgXgXgXgXgXgXgXgXgXgX",
"gXgXgXgXgXgXgXgXgX      O l L.R.,X7X).u                                                 u B P.+X9X-Xz O       gXgXgXgXgXgXgXgXgX",
"gXgXgXgXgXgXgX    . X X & d n V #X1XE.0 X X X X X X X X X X X X X X X X X X X X X X X X w c n _.1XXXg & X X .     gXgXgXgXgXgXgX",
"gXgXgXgXgXgX    4 Y Q Q ! =.q.0.M.N.e.%.$.$.$.$.$.$.$.$.$.$.$.$.$.$.$.$.$.$.$.$.$.$.$.$.%.w.w.m.N.m.=.! Q Q U 4     gXgXgXgXgXgX",
"gXgXgXgXgXgX  % Q 1.y.f.h.h.b.b.b.n.n.n.n.n.n.n.n.n.n.n.n.n.n.n.n.n.n.n.n.n.n.n.n.n.n.n.n.b.n.b.b.b.h.h.f.y.1.E %   gXgXgXgXgXgX",
"gXgXgXgXgXgX  4 #.<.1.t.f.h.h.b.b.b.b.b.b.b.b.b.n.n.n.b.b.n.b.b.b.n.b.b.b.n.n.b.b.n.b.n.b.n.b.b.b.h.h.f.i.r.<.#.4   gXgXgXgXgXgX",
"gXgXgXgXgXgX  r @.<.1.t.c.F.G.H.G.G.H.H.H.H.H.H.H.H.H.H.H.H.H.H.H.H.H.H.H.H.H.H.H.H.H.H.H.H.G.H.G.G.F.c.y.r.<.@.4   gXgXgXgXgXgX",
"gXgXgXgXgXgX  r @.;.1.a.S.J.J.J.K.K.K.K.K.K.K.K.K.K.K.K.K.K.K.K.K.K.K.K.K.K.K.K.K.K.K.K.K.K.K.K.K.J.J.S.a.1.<.@.e   gXgXgXgXgXgX",
"gXgXgXgXgXgX  r ' ;.<.a.A.S.G.G.G.G.H.H.H.H.H.H.H.H.H.H.H.H.H.H.H.H.H.H.H.H.H.H.H.G.H.H.H.G.G.G.G.G.G.A.a.<.;.' r   gXgXgXgXgXgX",
"gXgXgXgXgXgX  r ' ;.<.a.C.Z.D.D.D.D.D.D.D.D.D.D.D.D.D.D.D.D.D.D.F.D.D.D.D.D.D.D.D.D.D.D.D.D.D.D.D.D.C.C.a.<.;.' 2   gXgXgXgXgXgX",
"gXgXgXgXgXgX  r ` ;.;.a.B.B.C.V.V.V.V.V.V.V.V.V.D.V.V.V.V.V.D.V.D.V.V.V.V.D.V.V.V.V.V.D.V.V.V.V.V.C.B.B.6.<.;.' 4   gXgXgXgXgXgX",
"gXgXgXgXgXgX  r ' ..;.6.z.B.B.B.V.V.V.V.V.V.V.V.V.v.V.V.V.V.V.v.V.V.v.V.V.V.V.V.V.V.v.V.V.V.V.V.v.B.B.z.6.<.;.` 2   gXgXgXgXgXgX",
"gXgXgXgXgXgX  r ` ;.;.2.z.z.z.z.x.c.v.v.v.v.v.v.v.v.v.v.v.v.v.v.v.v.v.v.v.v.v.v.v.v.v.v.v.v.x.v.v.c.z.z.4.<...' 2   gXgXgXgXgXgX",
"gXgXgXgXgXgX  r ` -.;.2.j.l.l.l.x.x.x.x.x.x.x.x.x.v.v.x.v.x.v.x.x.x.x.x.x.v.x.x.x.x.x.x.x.v.x.x.z.z.l.j.4.;...` 4   gXgXgXgXgXgX",
"gXgXgXgXgXgX  e ` ' ;.2.j.j.l.l.x.x.l.x.d.x.x.x.x.h.x.x.l.l.9.*.*.9.l.x.h.x.x.x.x.x.x.x.x.l.l.l.l.d.k.j.2.;.-.` e   gXgXgXgXgXgX",
"gXgXgXgXgXgX  4 ` ..;.2.6.s.k.k.d.d.d.d.d.x.x.d.x.d.d.d.j.&.K y y K &.k.d.x.d.d.x.d.d.l.p.d.l.d.k.k.s.6.2.;...` e   gXgXgXgXgXgX",
"gXgXgXgXgXgX  2 `  .;.,.6.s.s.s.d.d.d.d.d.d.d.d.p.d.d.d.8.D 1 * & 1 D 8.p.d.d.d.d.d.d.d.p.d.p.d.u.s.s.6.2.-...` e   gXgXgXgXgXgX",
"gXgXgXgXgXgX  e ` ..-.,.4.7.7.u.s.p.s.p.p.p.p.p.p.p.p.s.{ 3 @ @ # O 3 { s.p.p.p.p.p.p.p.p.p.p.s.s.u.7.4.2.-...` e   gXgXgXgXgXgX",
"gXgXgXgXgXgX  e / ..-.,.2.4.7.s.u.s.s.u.u.p.p.u.u.p.p.s.T * X X + + $ T s.p.s.p.u.p.p.u.u.s.s.u.u.5.7.4.,.-.../ 2   gXgXgXgXgXgX",
"gXgXgXgXgXgX  e / ..-.,.2.3.7.u.u.u.u.s.u.s.u.u.u.u.u.u.] < . X . . < ] u.u.u.u.u.s.u.u.u.u.u.u.7.7.7.2.,.-.../ e   gXgXgXgXgXgX",
"gXgXgXgXgXgX  e /  .-.,.3.7.3.5.5.u.u.u.u.u.u.u.u.u.u.u.7.A # . . # A 7.u.u.u.u.u.u.u.u.u.7.u.u.u.3.3.2.,.-.../ 2   gXgXgXgXgXgX",
"gXgXgXgXgXgX  e / ....>.2.3.3.5.5.u.u.u.u.u.u.u.u.u.u.u.u.3.S X X S 3.u.u.u.u.5.u.u.u.u.5.u.5.5.5.3.3.2.,.-.../ 2   gXgXgXgXgXgX",
"gXgXgXgXgXgX  e /  .-.>.2.3.4.5.5.5.5.5.u.u.5.u.5.u.5.u.u.u.) + + ) u.u.5.u.u.u.u.u.u.5.u.5.5.5.3.5.3.2.>.-. ./ e   gXgXgXgXgXgX",
"gXgXgXgXgXgX  e /  .-.>.2.3.3.5.5.5.5.u.u.5.u.5.5.u.5.u.5.u.) + + ) 5.5.u.u.5.5.5.5.u.u.5.5.u.5.5.3.2.2.>.>. ./ 2   gXgXgXgXgXgX",
"gXgXgXgXgXgX  e /  .-.>.>.3.3.5.3.5.5.5.5.5.u.5.5.u.5.5.5.u.) X X ) u.5.5.5.5.u.5.u.5.5.5.5.5.5.5.3.3.2.>.-. ./ e   gXgXgXgXgXgX",
"gXgXgXgXgXgX  e /  .>.>.,.3.3.3.5.5.5.5.5.5.5.5.u.5.u.5.u.u.) X X ) u.u.u.5.u.5.5.u.u.5.5.5.5.5.3.3.3.,.>.>. ./ e   gXgXgXgXgXgX",
"gXgXgXgXgXgX  e /  ...>.,.3.3.3.5.3.5.5.5.5.u.5.5.5.5.5.u.u.+.4 r +.u.5.5.5.5.5.5.5.5.5.5.5.5.3.5.3.3.2.>.>. .} e   gXgXgXgXgXgX",
"gXgXgXgXgXgX  e /  ...>.,.3.3.5.5.5.5.5.5.5.u.5.5.5.5.u.5.u.g.t.t.h.u.5.5.5.5.u.5.5.5.5.5.5.5.5.5.3.3.>.>... .} e   gXgXgXgXgXgX",
"gXgXgXgXgXgX  e /  ...>.,.3.3.3.5.3.5.5.5.5.5.5.5.5.5.5.5.5.u.u.u.u.5.u.5.5.5.5.u.5.5.5.5.5.5.5.3.3.3.,.>... .^ e   gXgXgXgXgXgX",
"gXgXgXgXgXgX  e }  ...>.,.3.3.3.5.5.5.5.5.5.5.5.u.5.u.5.5.5.5.5.5.5.5.5.5.5.u.5.5.5.5.5.5.5.3.3.5.3.3.,.>... .} e   gXgXgXgXgXgX",
"gXgXgXgXgXgX  e ^  .>.>.,.3.3.3.3.5.5.5.5.5.5.5.5.5.5.5.5.5.5.u.5.u.5.5.5.5.5.5.5.5.u.5.5.5.5.5.5.3.3.,.>.>. .} e   gXgXgXgXgXgX",
"gXgXgXgXgXgX  e }  ...>.>.3.3.3.5.5.5.5.5.u.5.5.5.u.5.5.5.5.5.5.5.5.5.5.5.5.5.5.u.5.5.5.5.5.5.5.3.3.3.,.>.>. .} e   gXgXgXgXgXgX",
"gXgXgXgXgXgX  e ^  .>.>.,.3.3.5.5.5.5.5.5.5.5.5.5.5.5.5.u.5.5.5.5.5.5.u.u.5.5.5.5.5.5.5.5.5.5.5.5.3.3.,.>... .} e   gXgXgXgXgXgX",
"gXgXgXgXgXgX  e } | ..>.,.3.3.3.5.5.5.5.5.5.5.5.5.5.5.5.5.5.5.5.5.5.5.5.5.5.5.5.5.5.5.5.5.3.5.3.3.3.3.,.>... ./ e   gXgXgXgXgXgX",
"gXgXgXgXgXgX  e ^  ...>.,.,.3.3.3.3.5.3.5.5.5.5.5.5.5.3.5.5.5.7.5.5.5.5.5.5.5.5.5.5.5.5.5.5.5.3.3.3.3.>.>... ./ 2   gXgXgXgXgXgX",
"gXgXgXgXgXgX  e ^  . ...>.,.,.3.4.2.3.4.3.4.3.7.2.3.4.3.3.3.2.3.3.3.7.3.3.7.3.3.4.3.3.7.3.4.3.2.3.,.>.,.-...| ^ 2   gXgXgXgXgXgX",
"gXgXgXgXgXgX  e I |  . .-.:.>.>.,.,.,.,.,.,.,.,.,.,.4.,.,.,.4.,.2.,.,.,.,.,.,.,.2.,.,.,.,.,.,.,.,.>.>.O...| } ~ 2   gXgXgXgXgXgX",
"gXgXgXgXgXgX  < I I ^ ( X.o.o.o.O.O.:.:.:.:.:.:.:.:.:.:.:.:.:.:.:.:.:.:.:.:.:.:.:.:.:.:.O.O.O.O.o.o.o.X.( ^ ^ I ,   gXgXgXgXgXgX",
"gXgXgXgXgXgX    t H L L P P P P W [ [ [ [ [ [ [ [ [ [ [ [ [ [ [ [ [ [ [ [ [ [ [ [ [ [ [ [ [ [ [ [ P P P P L J t     gXgXgXgXgXgX",
"gXgXgXgXgXgXgX  . $ , , , , , , , , , , , , , , , , , , , , , , , , , , , , , , , , , , $ , , , , , , , , , #     gXgXgXgXgXgXgX",
"gXgXgXgXgXgXgXgX                                      o                                                         gXgXgXgXgXgXgXgX"
};
